<svg xmlns="http://www.w3.org/2000/svg" xmlns:xlink="http://www.w3.org/1999/xlink" xmlns:lucid="lucid" width="852.5" height="409"><g transform="translate(-150.05 2520)" lucid:page-tab-id="0_0"><path d="M0-2592h1760v1360H0z" fill="#fff"/><path d="M520-2500h120v120H520v-120z" stroke="#fff" stroke-opacity="0" stroke-width="2" fill="#d86613"/><path d="M616.8-2400h-19.72c-.64 0-1.15-.32-1.4-.88l-27.92-58.32h-11.78c-.9 0-1.6-.72-1.6-1.6v-17.6c0-.88.7-1.6 1.6-1.6h24.65c.64 0 1.15.32 1.4.88l27.8 58.32h6.97c.9 0 1.6.72 1.6 1.6v17.6c0 .88-.7 1.6-1.6 1.6zm-18.7-3.2h17.1v-14.4h-6.4c-.64 0-1.15-.32-1.4-.88l-27.8-58.32H557.6v14.4h11.2c.65 0 1.16.32 1.48.88z" stroke="#fff" stroke-opacity="0" stroke-width="2" fill="#fff"/><path d="M563.96-2400h-20.8c-.55 0-1.05-.3-1.37-.73-.33-.54-.33-1.12-.08-1.6l21.78-45.46c.24-.58.8-.92 1.4-.92.65 0 1.18.34 1.46.88l10.4 21.43c.26.43.26.92 0 1.4L565.42-2401c-.2.63-.77 1.02-1.44 1.02zm-18.24-3.22h17.24l10.6-22.36-8.6-17.88z" stroke="#fff" stroke-opacity="0" stroke-width="2" fill="#fff"/><use xlink:href="#a" transform="matrix(1,0,0,1,490,-2371) translate(34.875 14.4)"/><use xlink:href="#b" transform="matrix(1,0,0,1,490,-2371) translate(80.175 14.4)"/><path d="M200-2280h120v120H200v-120z" stroke="#fff" stroke-opacity="0" fill="#d6242d"/><path d="M277.6-2181.58c-.35 0-.64-.15-.93-.3-.43-.3-.67-.78-.67-1.3v-73.63c0-.55.3-1.1.77-1.4.48-.3 1.08-.3 1.6-.07l20.8 10.22c.56.23.9.77.9 1.38v56.56c.02.76-.4 1.37-1.1 1.6l-20.8 6.92h-.56zm1.62-72.62v68.78l17.6-5.84v-54.4zM242.4-2181.58h-.52l-20.8-6.92c-.67-.23-1.1-.92-1.08-1.6v-56.57c0-.6.33-1.15.9-1.38l20.8-10.22c.52-.23 1.1-.23 1.6.08.48.3.75.85.75 1.4v73.6c0 .54-.24 1-.68 1.3-.28.24-.6.32-.98.32zm-19.2-9.6l17.6 5.83v-68.85l-17.6 8.6z" stroke="#fff" stroke-opacity="0" fill="#fff"/><path d="M276-2236h-4.8v-3.2h4.8zm-9.6 0h-4.8v-3.2h4.8zm-9.6 0H252v-3.2h4.8zm-9.6 0h-4.8v-3.2h4.8zM276-2200.8h-4.8v-3.2h4.8zm-9.6 0h-4.8v-3.2h4.8zm-9.6 0H252v-3.2h4.8zm-9.6 0h-4.8v-3.2h4.8zM252.98-2214.5l-6.02-5.13c-.67-.57-.75-1.6-.18-2.26l.18-.17 6-5.13 2.08 2.43-4.58 3.97 4.58 3.92zM267.04-2214.5l-2.08-2.42 4.57-3.88-4.6-3.9 2.1-2.5 6 5.12c.68.57.76 1.6.2 2.26-.07.06-.12.12-.2.17z" stroke="#fff" stroke-opacity="0" fill="#fff"/><path d="M255.3-2211.13l6.35-18.8 3.04 1.03-6.37 18.8-3.04-1.03z" stroke="#fff" stroke-opacity="0" stroke-width=".32" fill="#fff"/><use xlink:href="#c" transform="matrix(1,0,0,1,170,-2151) translate(2.049999999999997 14.4)"/><use xlink:href="#d" transform="matrix(1,0,0,1,170,-2151) translate(73 14.4)"/><use xlink:href="#e" transform="matrix(1,0,0,1,170,-2151) translate(107 14.4)"/><path d="M200-2500h120v120H200v-120z" stroke="#fff" stroke-opacity="0" fill="#693cc5"/><path d="M273.82-2402.93l-2.85-1.5c1.6-3.02 2.7-5.73 3.64-9.04l3.1.9c-1.03 3.54-2.17 6.4-3.88 9.64zm2.98-29.3c-.57-9.4-3.23-17.23-8.43-25.06l2.66-1.72c5.55 8.28 8.37 16.64 8.97 26.58zm-21.1-38.6c-2.45-1.82-4.67-3.18-7.4-4.53l1.46-2.86c2.92 1.43 5.26 2.86 7.86 4.8zM268.8-2428.16c-5.3-5.27-10.82-8.73-17.87-11.2l1-3.04c7.5 2.63 13.38 6.3 19.03 11.92zM282-2409.06c-.6-1.6-1.28-3.07-2.02-4.56l2.87-1.42c.83 1.65 1.46 3.08 2.13 4.8z" stroke="#fff" stroke-opacity="0" fill="#fff"/><path d="M272.9-2402.16l-1-3.02c4.02-1.37 7.24-3.1 10.6-5.72l1.96 2.53c-3.66 2.85-7.15 4.73-11.55 6.2zM222.04-2440.8l-.73-3.1c3.75-.92 7-1.35 10.85-1.43l.07 3.2c-3.6.08-6.66.47-10.18 1.33zM248.3-2450.98l-2.7-1.75c2.47-4 5.06-7.1 8.6-10.23l2.1 2.42c-3.3 2.92-5.7 5.8-8 9.56zM272.08-2469.95l-1.1-3c2.55-.96 4.76-1.6 7.42-2.12l.6 3.2c-2.5.47-4.55 1.04-6.92 1.92zM240.4-2405.6c-2.75-6.38-4-12.25-4.1-19.2.04-2.67.34-4.95.98-7.54.1-.57.24-1.14.35-1.74l3.2.63c-.1.6-.24 1.16-.35 1.76-.6 2.38-.87 4.46-.92 6.9.07 6.53 1.23 12.05 3.8 18.06z" stroke="#fff" stroke-opacity="0" fill="#fff"/><path d="M260-2400c-22.08 0-40-17.94-40-39.97 0-.88 0-1.6.08-2.5 1.04-17.05 12.08-31 28.48-35.87 10.8-3.2 21.2-2.1 30.96 3.44 19.28 10.82 26.16 35.17 15.36 54.47-2.72 4.9-5.92 8.65-10.4 12.1-7.36 5.6-15.2 8.33-24.48 8.33zm0-76.82c-3.76 0-6.96.48-10.48 1.6-15.12 4.57-25.28 17.3-26.24 33 0 .8-.08 1.53-.08 2.25 0 20.26 16.48 36.77 36.8 36.77 4.24 0 7.84-.56 11.84-2 4.08-1.37 7.28-3.05 10.64-5.7 9.36-7.2 14.32-17.3 14.32-29.07 0-20.35-16.48-36.85-36.8-36.85z" stroke="#fff" stroke-opacity="0" fill="#fff"/><path d="M263.9-2458.5c-3.92 0-7.1-3.2-7.1-7.1 0-3.9 3.18-7.1 7.1-7.1 3.9 0 7.08 3.2 7.08 7.1 0 3.93-3.17 7.1-7.08 7.1zm0-10.97c-2.15 0-3.9 1.74-3.9 3.88 0 2.17 1.75 3.9 3.9 3.9 2.13 0 3.87-1.73 3.87-3.9 0-2.13-1.74-3.87-3.88-3.87zM242.06-2436.2c-3.9 0-7.08-3.17-7.08-7.08 0-3.9 3.17-7.1 7.08-7.1 3.92 0 7.1 3.2 7.1 7.1-.02 3.9-3.18 7.07-7.1 7.1zm0-10.96c-2.14 0-3.88 1.74-3.88 3.88 0 2.14 1.74 3.88 3.88 3.88 2.14 0 3.9-1.74 3.9-3.88v-.03c0-2.16-1.76-3.9-3.9-3.9zM277.25-2415.68c-3.92 0-7.1-3.16-7.1-7.07-.02-3.92 3.16-7.1 7.07-7.1 3.9-.02 7.1 3.16 7.1 7.07v.03c0 3.9-3.16 7.07-7.07 7.07zm0-10.96h-.02c-2.14 0-3.88 1.75-3.88 3.9 0 2.14 1.74 3.87 3.88 3.87 2.14 0 3.9-1.73 3.9-3.88 0-2.14-1.74-3.9-3.88-3.9z" stroke="#fff" stroke-opacity="0" fill="#fff"/><use xlink:href="#c" transform="matrix(1,0,0,1,170,-2371) translate(10.125 14.4)"/><use xlink:href="#f" transform="matrix(1,0,0,1,170,-2371) translate(81.075 14.4)"/><path d="M840-2280h120v120H840v-120z" stroke="#fff" stroke-opacity="0" stroke-width="2" fill="#3f8624"/><path d="M938.3-2215.94c-.47-2.48-3.3-4.25-5.3-5.53-.62-.4-2.3-1.04-2.46-1.6 0-.4 0-.8.16-1.2l1.6-11.46 1.4-10.17c.37-3.05-1.1-5.13-3.62-6.9-5.13-3.6-11.88-5.04-17.94-6-7.97-1.28-14.95-1.52-23-.72-7.28.48-13.34 1.92-20.08 4.8-3.38 1.6-7.9 4.1-7.3 8.42 1.55 12.97 3.46 25.95 5.23 38.93.75 5.93 1.6 11.86 2.36 17.8.3 2.47 1.7 4.4 4 5.35 4.9 2.65 11.03 3.45 16.63 3.93 7.73.73 14.32.5 22-.95 4.6-.8 13.18-2.25 13.94-8 .92-7.14 1.92-14.27 2.84-21.4l.38-2.17c2.6.64 10.05 2 9.13-3.12zm-40.65-40.86c9.66 0 20.63 1.12 29.2 5.85 1.4.72 4.46 2.32 3.54 4.33-.93 1.92-3.84 2.88-5.6 3.6-2.6.96-5 1.6-7.75 2.16-11.96 2.4-22.54 2.65-34.65.73-5.45-.57-9.97-1.93-14.88-4.33-1.15-.72-3.06-1.84-2.53-3.45.38-.9 1-1.53 1.83-2 3.76-2.4 7.2-3.85 11.58-4.66 6.6-1.6 12.43-2.32 19.25-2.24zm25.15 67.46c-.3 1.84-3.37 2.8-4.83 3.28-3.22 1.12-6.06 1.76-9.43 2.16-7.44.97-13.88.97-21.4 0-4.67-.4-8.58-1.44-12.8-3.52-1.14-.48-1.83-1.52-1.9-2.72-1.62-12.74-3.38-25.4-5.15-38.06l-1.85-13.78c3.84 2.1 7.36 3.37 11.66 4.1 4.68.95 8.6 1.43 13.35 1.75 9.2.64 17.1.24 26.22-1.44 4.83-.72 8.8-2.08 13.1-4.4l-3.37 25.07c-8.58-2.8-15.64-5.6-23.7-9.54-.37-.16-.68-.32-.98-.48-.46-.32-.3-.16-.54-.64-.38-.96-.46-1.6-1.3-2.4-.77-.56-1.6-.8-2.53-.72-2 .08-3.53 1.84-3.38 3.84.16 1.93 1.92 3.45 3.9 3.3.55-.1 1-.25 1.62-.5.6-.15.6-.15 1.22.17 8.2 4 15.33 6.97 24 9.85 1.22.4 1.22 0 1.22 1.04-.07.8-.15 1.53-.3 2.33l-1 7.6zm-24.7-37.9c0 .48-.6.4-.75.16-.23-.32.76-.72.76-.16zm31.52 11.22l.46-3.53c1.6.97 4.3 2.33 5.06 4.1-1.6.63-4.06-.17-5.52-.57z" stroke="#fff" stroke-opacity="0" stroke-width="2" fill="#fff"/><use xlink:href="#c" transform="matrix(1,0,0,1,810,-2151) translate(43.525 14.4)"/><use xlink:href="#g" transform="matrix(1,0,0,1,810,-2151) translate(114.475 14.4)"/><path d="M840-2500h120v120H840v-120z" stroke="#fff" stroke-opacity="0" stroke-width="2" fill="#3b48cc"/><path d="M920.4-2435.22l-10.6 10.55c2-.56 3.65-1.2 5.5-2.24 1.1.63 1.68 1.67 1.9 2.87 0 2.96-6.2 6.16-15.4 7.44-3.05.4-5.55.56-8.6.56h-1.58c-12.95-.24-22.42-4.3-22.42-8 .17-1.2.82-2.15 1.9-2.87 5 2.8 13.18 4.47 22.1 4.47h.17l.92-3.2h-1.1c-8.8 0-16.98-1.76-21.28-4.47-1.74-1.12-2.72-2.4-2.72-3.44v-7.44c4.9 3.76 14.64 5.68 24 5.68 1.25 0 2.5 0 3.76-.08l.92-3.2c-1.63.08-3.1.16-4.68.16-13.7 0-24-4.23-24-8 .17-1.27.82-2.23 1.9-2.87 4.42 2.5 11.22 4 18.9 4.4l.1-3.2c-7.56-.4-14.42-2-18.18-4.47-1.74-1.04-2.66-2.3-2.72-3.43v-7.36c4.9 3.76 14.64 5.68 24 5.68h.33l1.74-3.2h-2.07c-13.7 0-24-4.16-24-8 0-3.75 10.3-8 24-8 4.85 0 8.98.5 13.72 1.6h8.8c-4.83-2.95-13.1-4.78-22.52-4.78-13.17 0-27.2 3.9-27.2 11.2v12.86c.1 1.92.92 3.5 2.44 4.7-1.52 1.3-2.34 2.9-2.45 4.8v12.8c.1 2 .92 3.6 2.44 4.87-1.52 1.2-2.34 2.8-2.45 4.8V-2410.93c.43 7.05 14.2 10.8 27.2 10.8s26.78-3.75 27.2-10.87V-2424.12c-.04-1.9-.9-3.6-2.44-4.78 1.53-1.2 2.34-2.88 2.45-4.8zm-3.2 23.98c0 3.76-10.28 8-24 8-13.7 0-24-4.16-24-8v-7.35c4.9 3.68 14.64 5.68 24 5.68s19.1-2 24-5.67z" stroke="#fff" stroke-opacity="0" stroke-width="2" fill="#fff"/><path d="M876-2455.97c0 1.1-.9 2-2 2s-2-.9-2-2 .9-2 2-2 2 .9 2 2zM876-2433.57c0 1.1-.9 2-2 2s-2-.9-2-2 .9-2 2-2 2 .9 2 2zM876-2411.17c0 1.1-.9 2-2 2s-2-.9-2-2 .9-2 2-2 2 .9 2 2zM897.2-2417.63c-.3 0-.53-.06-.8-.22-.66-.38-.94-1.14-.74-1.85l8.98-29.95h-9.06c-.88.06-1.6-.65-1.6-1.58 0-.27.04-.54.2-.76l9.58-19.2c.28-.56.8-.88 1.45-.88H926c.9-.06 1.62.65 1.66 1.52.04.22 0 .38-.04.6l-4.13 12.25h8.97c.88.05 1.6.76 1.6 1.63 0 .43-.16.76-.44 1.1l-35.2 36.8c-.32.37-.72.54-1.24.54zm1-35.18h8.6c.53 0 .97.2 1.3.6.27.43.4.92.23 1.4l-7.7 25.6 28.03-29.24h-7.46c-.88 0-1.64-.65-1.68-1.52 0-.22 0-.44.08-.6l4.1-12.3h-17.6z" stroke="#fff" stroke-opacity="0" stroke-width="2" fill="#fff"/><use xlink:href="#c" transform="matrix(1,0,0,1,810,-2371) translate(8.599999999999994 14.4)"/><use xlink:href="#h" transform="matrix(1,0,0,1,810,-2371) translate(79.55 14.4)"/><path d="M321-2440h180.5" stroke="#000" stroke-width="2" fill="none"/><path d="M321.03-2439H320v-2h1.03z"/><path d="M516.76-2440l-14.26 4.64v-9.28z" stroke="#000" stroke-width="2"/><path d="M321-2220h99v-220h81.5" stroke="#000" stroke-width="2" fill="none"/><path d="M321.03-2219H320v-2h1.03z"/><path d="M516.76-2440l-14.26 4.64v-9.28z" stroke="#000" stroke-width="2"/><path d="M641-2440h180.5" stroke="#000" stroke-width="2" fill="none"/><path d="M641.03-2439H640v-2h1.03z"/><path d="M836.76-2440l-14.26 4.64v-9.28z" stroke="#000" stroke-width="2"/><path d="M641-2440h99v220h81.5" stroke="#000" stroke-width="2" fill="none"/><path d="M641.03-2439H640v-2h1.03z"/><path d="M836.76-2220l-14.26 4.64v-9.28z" stroke="#000" stroke-width="2"/><defs><path d="M205 0l-28-72H64L36 0H1l101-248h38L239 0h-34zm-38-99l-47-123c-12 45-31 82-46 123h93" id="i"/><path d="M266 0h-40l-56-210L115 0H75L2-248h35L96-30l15-64 43-154h32l59 218 59-218h35" id="j"/><path d="M185-189c-5-48-123-54-124 2 14 75 158 14 163 119 3 78-121 87-175 55-17-10-28-26-33-46l33-7c5 56 141 63 141-1 0-78-155-14-162-118-5-82 145-84 179-34 5 7 8 16 11 25" id="k"/><g id="a"><use transform="matrix(0.05,0,0,0.05,0,0)" xlink:href="#i"/><use transform="matrix(0.05,0,0,0.05,11.35,0)" xlink:href="#j"/><use transform="matrix(0.05,0,0,0.05,28.299999999999997,0)" xlink:href="#k"/></g><path d="M30 0v-248h33v221h125V0H30" id="l"/><path d="M141-36C126-15 110 5 73 4 37 3 15-17 15-53c-1-64 63-63 125-63 3-35-9-54-41-54-24 1-41 7-42 31l-33-3c5-37 33-52 76-52 45 0 72 20 72 64v82c-1 20 7 32 28 27v20c-31 9-61-2-59-35zM48-53c0 20 12 33 32 33 41-3 63-29 60-74-43 2-92-5-92 41" id="m"/><path d="M210-169c-67 3-38 105-44 169h-31v-121c0-29-5-50-35-48C34-165 62-65 56 0H25l-1-190h30c1 10-1 24 2 32 10-44 99-50 107 0 11-21 27-35 58-36 85-2 47 119 55 194h-31v-121c0-29-5-49-35-48" id="n"/><path d="M115-194c53 0 69 39 70 98 0 66-23 100-70 100C84 3 66-7 56-30L54 0H23l1-261h32v101c10-23 28-34 59-34zm-8 174c40 0 45-34 45-75 0-40-5-75-45-74-42 0-51 32-51 76 0 43 10 73 51 73" id="o"/><path d="M85-194c31 0 48 13 60 33l-1-100h32l1 261h-30c-2-10 0-23-3-31C134-8 116 4 85 4 32 4 16-35 15-94c0-66 23-100 70-100zm9 24c-40 0-46 34-46 75 0 40 6 74 45 74 42 0 51-32 51-76 0-42-9-74-50-73" id="p"/><g id="b"><use transform="matrix(0.05,0,0,0.05,0,0)" xlink:href="#l"/><use transform="matrix(0.05,0,0,0.05,10,0)" xlink:href="#m"/><use transform="matrix(0.05,0,0,0.05,20,0)" xlink:href="#n"/><use transform="matrix(0.05,0,0,0.05,34.95,0)" xlink:href="#o"/><use transform="matrix(0.05,0,0,0.05,44.95,0)" xlink:href="#p"/><use transform="matrix(0.05,0,0,0.05,54.95,0)" xlink:href="#m"/></g><path d="M9 0v-24l116-142H16v-24h144v24L44-24h123V0H9" id="q"/><path d="M100-194c62-1 85 37 85 99 1 63-27 99-86 99S16-35 15-95c0-66 28-99 85-99zM99-20c44 1 53-31 53-75 0-43-8-75-51-75s-53 32-53 75 10 74 51 75" id="r"/><path d="M117-194c89-4 53 116 60 194h-32v-121c0-31-8-49-39-48C34-167 62-67 57 0H25l-1-190h30c1 10-1 24 2 32 11-22 29-35 61-36" id="s"/><g id="c"><use transform="matrix(0.05,0,0,0.05,0,0)" xlink:href="#i"/><use transform="matrix(0.05,0,0,0.05,12,0)" xlink:href="#n"/><use transform="matrix(0.05,0,0,0.05,26.950000000000003,0)" xlink:href="#m"/><use transform="matrix(0.05,0,0,0.05,36.95,0)" xlink:href="#q"/><use transform="matrix(0.05,0,0,0.05,45.95,0)" xlink:href="#r"/><use transform="matrix(0.05,0,0,0.05,55.95,0)" xlink:href="#s"/></g><path d="M30-248c87 1 191-15 191 75 0 78-77 80-158 76V0H30v-248zm33 125c57 0 124 11 124-50 0-59-68-47-124-48v98" id="t"/><path d="M33 0v-248h34V0H33" id="u"/><g id="d"><use transform="matrix(0.05,0,0,0.05,0,0)" xlink:href="#i"/><use transform="matrix(0.05,0,0,0.05,12,0)" xlink:href="#t"/><use transform="matrix(0.05,0,0,0.05,24,0)" xlink:href="#u"/></g><path d="M143 4C61 4 22-44 18-125c-5-107 100-154 193-111 17 8 29 25 37 43l-32 9c-13-25-37-40-76-40-61 0-88 39-88 99 0 61 29 100 91 101 35 0 62-11 79-27v-45h-74v-28h105v86C228-13 192 4 143 4" id="v"/><path d="M59-47c-2 24 18 29 38 22v24C64 9 27 4 27-40v-127H5v-23h24l9-43h21v43h35v23H59v120" id="w"/><path d="M100-194c63 0 86 42 84 106H49c0 40 14 67 53 68 26 1 43-12 49-29l28 8c-11 28-37 45-77 45C44 4 14-33 15-96c1-61 26-98 85-98zm52 81c6-60-76-77-97-28-3 7-6 17-6 28h103" id="x"/><path d="M206 0h-36l-40-164L89 0H53L-1-190h32L70-26l43-164h34l41 164 42-164h31" id="y"/><path d="M179-190L93 31C79 59 56 82 12 73V49c39 6 53-20 64-50L1-190h34L92-34l54-156h33" id="z"/><g id="e"><use transform="matrix(0.05,0,0,0.05,0,0)" xlink:href="#v"/><use transform="matrix(0.05,0,0,0.05,14,0)" xlink:href="#m"/><use transform="matrix(0.05,0,0,0.05,24,0)" xlink:href="#w"/><use transform="matrix(0.05,0,0,0.05,29,0)" xlink:href="#x"/><use transform="matrix(0.05,0,0,0.05,39,0)" xlink:href="#y"/><use transform="matrix(0.05,0,0,0.05,51.95,0)" xlink:href="#m"/><use transform="matrix(0.05,0,0,0.05,61.95,0)" xlink:href="#z"/></g><path d="M212-179c-10-28-35-45-73-45-59 0-87 40-87 99 0 60 29 101 89 101 43 0 62-24 78-52l27 14C228-24 195 4 139 4 59 4 22-46 18-125c-6-104 99-153 187-111 19 9 31 26 39 46" id="A"/><path d="M24 0v-261h32V0H24" id="B"/><path d="M84 4C-5 8 30-112 23-190h32v120c0 31 7 50 39 49 72-2 45-101 50-169h31l1 190h-30c-1-10 1-25-2-33-11 22-28 36-60 37" id="C"/><path d="M63-220v92h138v28H63V0H30v-248h175v28H63" id="D"/><path d="M114-163C36-179 61-72 57 0H25l-1-190h30c1 12-1 29 2 39 6-27 23-49 58-41v29" id="E"/><g id="f"><use transform="matrix(0.05,0,0,0.05,0,0)" xlink:href="#A"/><use transform="matrix(0.05,0,0,0.05,12.950000000000001,0)" xlink:href="#B"/><use transform="matrix(0.05,0,0,0.05,16.900000000000002,0)" xlink:href="#r"/><use transform="matrix(0.05,0,0,0.05,26.900000000000002,0)" xlink:href="#C"/><use transform="matrix(0.05,0,0,0.05,36.900000000000006,0)" xlink:href="#p"/><use transform="matrix(0.05,0,0,0.05,46.900000000000006,0)" xlink:href="#D"/><use transform="matrix(0.05,0,0,0.05,57.85,0)" xlink:href="#E"/><use transform="matrix(0.05,0,0,0.05,63.80000000000001,0)" xlink:href="#r"/><use transform="matrix(0.05,0,0,0.05,73.80000000000001,0)" xlink:href="#s"/><use transform="matrix(0.05,0,0,0.05,83.80000000000001,0)" xlink:href="#w"/></g><path d="M126-127c33 6 58 20 58 59 0 88-139 92-164 29-3-8-5-16-6-25l32-3c6 27 21 44 54 44 32 0 52-15 52-46 0-38-36-46-79-43v-28c39 1 72-4 72-42 0-27-17-43-46-43-28 0-47 15-49 41l-32-3c6-42 35-63 81-64 48-1 79 21 79 65 0 36-21 52-52 59" id="F"/><g id="g"><use transform="matrix(0.05,0,0,0.05,0,0)" xlink:href="#k"/><use transform="matrix(0.05,0,0,0.05,12,0)" xlink:href="#F"/></g><path d="M30-248c118-7 216 8 213 122C240-48 200 0 122 0H30v-248zM63-27c89 8 146-16 146-99s-60-101-146-95v194" id="G"/><path d="M160-131c35 5 61 23 61 61C221 17 115-2 30 0v-248c76 3 177-17 177 60 0 33-19 50-47 57zm-97-11c50-1 110 9 110-42 0-47-63-36-110-37v79zm0 115c55-2 124 14 124-45 0-56-70-42-124-44v89" id="H"/><g id="h"><use transform="matrix(0.05,0,0,0.05,0,0)" xlink:href="#G"/><use transform="matrix(0.05,0,0,0.05,12.950000000000001,0)" xlink:href="#z"/><use transform="matrix(0.05,0,0,0.05,21.950000000000003,0)" xlink:href="#s"/><use transform="matrix(0.05,0,0,0.05,31.950000000000003,0)" xlink:href="#m"/><use transform="matrix(0.05,0,0,0.05,41.95,0)" xlink:href="#n"/><use transform="matrix(0.05,0,0,0.05,56.900000000000006,0)" xlink:href="#r"/><use transform="matrix(0.05,0,0,0.05,66.9,0)" xlink:href="#G"/><use transform="matrix(0.05,0,0,0.05,79.85000000000001,0)" xlink:href="#H"/></g></defs></g></svg>